<?xml version="1.0" encoding="utf-8"?><!-- Uploaded to: SVG Repo, www.svgrepo.com, Generator: SVG Repo Mixer Tools -->
<svg fill="#000000" width="800px" height="800px" viewBox="0 -0.54 15.934 15.934" id="alert-triangle-16px" xmlns="http://www.w3.org/2000/svg">
  <path id="Path_175" data-name="Path 175" d="M-11.036,16H-22.964a1.985,1.985,0,0,1-1.722-.981,1.985,1.985,0,0,1-.031-1.982l5.965-10.852A1.97,1.97,0,0,1-17,1.148a1.97,1.97,0,0,1,1.752,1.037l5.965,10.852a1.985,1.985,0,0,1-.031,1.982A1.985,1.985,0,0,1-11.036,16ZM-17,2.148a.987.987,0,0,0-.876.518l-5.965,10.852a.991.991,0,0,0,.016.991.993.993,0,0,0,.861.491h11.928a.993.993,0,0,0,.861-.491.989.989,0,0,0,.015-.991L-16.124,2.666A.987.987,0,0,0-17,2.148Zm.5,8.352v-6A.5.5,0,0,0-17,4a.5.5,0,0,0-.5.5v6a.5.5,0,0,0,.5.5A.5.5,0,0,0-16.5,10.5Zm0,3v-1A.5.5,0,0,0-17,12a.5.5,0,0,0-.5.5v1a.5.5,0,0,0,.5.5A.5.5,0,0,0-16.5,13.5Z" transform="translate(24.967 -1.148)"/>
</svg>