<svg width="24" height="24" viewBox="0 0 24 24" fill="none" xmlns="http://www.w3.org/2000/svg">
<path fill-rule="evenodd" clip-rule="evenodd" d="M2.99311 9.10625C2.36096 9.67518 2 10.4857 2 11.3361V19C2 20.6569 3.34315 22 5 22H19C20.6569 22 22 20.6569 22 19V11.3361C22 10.4857 21.639 9.67518 21.0069 9.10625L14.0069 2.80625C12.866 1.77943 11.134 1.77943 9.9931 2.80625L2.99311 9.10625ZM11 13C9.89543 13 9 13.8955 9 15V19C9 19.5523 9.44772 20 10 20H14C14.5523 20 15 19.5523 15 19V15C15 13.8955 14.1046 13 13 13H11Z" fill="#6F767E"/>
</svg>
